<?xml version="1.0" encoding="iso-8859-1"?>
<!-- Generator: Adobe Illustrator 16.0.0, SVG Export Plug-In . SVG Version: 6.00 Build 0)  -->
<!DOCTYPE svg PUBLIC "-//W3C//DTD SVG 1.1//EN" "http://www.w3.org/Graphics/SVG/1.1/DTD/svg11.dtd">
<svg xmlns="http://www.w3.org/2000/svg" xmlns:xlink="http://www.w3.org/1999/xlink" version="1.1" id="Capa_1" x="0px" y="0px" width="512px" height="512px" viewBox="0 0 48.328 48.328" style="enable-background:new 0 0 48.328 48.328;" xml:space="preserve">
<g>
	<g id="Twitter">
		<path d="M15.533,44.092c-8.94,0-14.886-4.394-15.134-4.58c-0.364-0.273-0.497-0.758-0.324-1.18    c0.173-0.422,0.613-0.672,1.058-0.611c0.871,0.117,1.738,0.178,2.577,0.178c4.163,0,7.074-1.441,8.723-2.578    c-5.357-1.318-7.273-6.428-7.362-6.673c-0.115-0.318-0.062-0.675,0.143-0.943c0.204-0.271,0.536-0.42,0.869-0.395    c0.051,0.003,0.101,0.007,0.149,0.01c-4.532-3.14-4.536-8.595-4.535-8.66c0.004-0.341,0.181-0.656,0.47-0.837    c0.289-0.182,0.649-0.202,0.958-0.056c0.264,0.124,0.509,0.232,0.735,0.325C-0.553,12.205,3.048,6.474,3.09,6.41    c0.174-0.269,0.465-0.438,0.784-0.455c0.321-0.02,0.627,0.117,0.83,0.365c5.815,7.107,14.459,9.118,17.721,9.641    c-0.129-1.492,0.024-3.664,0.916-5.711c1.079-2.479,3.047-4.29,5.688-5.24c1.429-0.514,2.842-0.774,4.2-0.774    c3.707,0,6.085,1.901,7.027,2.833c2.773-0.763,4.98-2.109,5.005-2.124c0.337-0.207,0.767-0.196,1.094,0.029    c0.326,0.227,0.487,0.623,0.412,1.013c-0.254,1.307-0.977,2.527-1.736,3.513c1.132-0.343,1.789-0.71,1.8-0.717    c0.383-0.216,0.858-0.159,1.177,0.138c0.32,0.297,0.411,0.768,0.224,1.161c-0.783,1.641-3.56,4.085-4.605,4.972    c-0.12,14.362-8.828,25.489-22.296,28.413C19.417,43.883,17.466,44.092,15.533,44.092z M5.106,39.85    c2.46,1.093,6.08,2.242,10.427,2.242c1.791,0,3.599-0.194,5.373-0.58c12.654-2.748,20.787-13.314,20.719-26.922    c-0.002-0.301,0.133-0.587,0.366-0.778c0.646-0.528,1.503-1.285,2.299-2.062c-0.619,0.128-1.307,0.231-2.055,0.286    c-0.439,0.032-0.843-0.225-1.003-0.631c-0.161-0.407-0.037-0.872,0.304-1.146c0.02-0.015,1.19-0.966,2.139-2.28    c-0.992,0.426-2.201,0.868-3.516,1.181c-0.375,0.091-0.776-0.048-1.017-0.354c-0.081-0.101-2.108-2.569-5.913-2.569    c-1.126,0-2.312,0.221-3.523,0.656c-2.115,0.76-3.63,2.136-4.501,4.088c-1.146,2.569-0.812,5.291-0.622,5.755    c0.13,0.32,0.089,0.692-0.113,0.972c-0.203,0.28-0.534,0.434-0.877,0.419c-0.489-0.035-11.613-0.909-19.418-9.368    c-0.741,2.014-1.403,6.121,3.113,10.085c0.255,0.224,0.379,0.561,0.33,0.896c-0.048,0.335-0.263,0.623-0.57,0.765    c-0.135,0.062-0.438,0.166-0.96,0.166c-0.627,0-1.366-0.145-2.209-0.433c0.417,2.022,1.783,5.437,6.264,6.724    c0.34,0.098,0.604,0.367,0.691,0.711c0.089,0.342-0.01,0.705-0.261,0.957c-0.316,0.315-1.08,0.69-2.918,0.729    c1.013,1.648,3.207,4.178,7.167,4.271c0.388,0.01,0.734,0.24,0.892,0.596c0.156,0.354,0.094,0.768-0.16,1.061    C15.398,35.459,11.925,39.365,5.106,39.85z" fill="#000000"/>
		<path d="M34.378,9.96c-1.661,0-3.007,1.346-3.007,3.006s1.346,3.006,3.007,3.006c1.66,0,3.006-1.346,3.006-3.006    S36.038,9.96,34.378,9.96z M34.379,13.617c-0.774,0-1.402-0.629-1.402-1.403c0-0.773,0.628-1.402,1.402-1.402    s1.401,0.629,1.401,1.402C35.78,12.988,35.153,13.617,34.379,13.617z" fill="#000000"/>
	</g>
	<g>
	</g>
	<g>
	</g>
	<g>
	</g>
	<g>
	</g>
	<g>
	</g>
	<g>
	</g>
	<g>
	</g>
	<g>
	</g>
	<g>
	</g>
	<g>
	</g>
	<g>
	</g>
	<g>
	</g>
	<g>
	</g>
	<g>
	</g>
	<g>
	</g>
</g>
<g>
</g>
<g>
</g>
<g>
</g>
<g>
</g>
<g>
</g>
<g>
</g>
<g>
</g>
<g>
</g>
<g>
</g>
<g>
</g>
<g>
</g>
<g>
</g>
<g>
</g>
<g>
</g>
<g>
</g>
</svg>
